<svg id="Layer_1" data-name="Layer 1" xmlns="http://www.w3.org/2000/svg" viewBox="0 0 409 190"><defs><style>.cls-1{fill:#fff;stroke-width:9px;}.cls-1,.cls-2{stroke:#0098ff;stroke-miterlimit:10;}.cls-2,.cls-3{fill:#0098ff;}.cls-2{stroke-width:17px;}.cls-4{fill:#00a4ff;}.cls-5{fill:#fafdff;}</style></defs><title>app_icon</title><rect class="cls-1" x="11.5" y="108.41" width="386.5" height="67.59" rx="12"/><path class="cls-2" d="M266.63,89.88H33.06S46.57,27.59,106,24.94s160.66,0,160.66,0Z"/><ellipse class="cls-3" cx="333.13" cy="57" rx="42.87" ry="42"/><path class="cls-4" d="M91.12,159.65a20,20,0,0,1-8.26,1.43c-10.16,0-16.33-6.39-16.33-16.17,0-10.6,7.31-17,17.09-17a18.33,18.33,0,0,1,7.79,1.43L90.13,134a15.46,15.46,0,0,0-6.27-1.24c-6.51,0-11.21,4.1-11.21,11.83,0,7.06,4.13,11.59,11.16,11.59A16.21,16.21,0,0,0,90.17,155Z"/><path class="cls-4" d="M139.42,144.19c0,10.78-6.51,16.94-15.34,16.94-9,0-14.72-6.92-14.72-16.37,0-9.87,6.17-16.84,15.2-16.84C133.91,127.92,139.42,135,139.42,144.19Zm-23.89.48c0,6.53,3.28,11.74,8.88,11.74s8.84-5.25,8.84-12c0-6.06-3-11.79-8.84-11.79S115.53,138,115.53,144.67Z"/><path class="cls-4" d="M167.77,160.6l-10.35-32.15h6.36l4.37,14.6c1.24,4,2.28,7.82,3.13,11.73h.1c.85-3.81,2-7.73,3.28-11.64l4.65-14.69h6.22L174.47,160.6Z"/><path class="cls-4" d="M211,128.45V160.6h-5.84V128.45Z"/><path class="cls-4" d="M233.83,128.87a59.83,59.83,0,0,1,9.3-.66c6,0,10.12,1.24,13.06,3.72s5,6.34,5,11.83c0,5.73-1.95,10-5,12.79s-8.26,4.39-14.48,4.39a63.13,63.13,0,0,1-7.88-.43Zm5.84,27.25a22.08,22.08,0,0,0,3.23.14c7.59.05,12.1-4.15,12.1-12.31.05-7.11-4-11.16-11.34-11.16a18.63,18.63,0,0,0-4,.33Z"/><path class="cls-4" d="M290.24,134.89h-.09l-5.65,2.86-1-4.44,7.5-3.72h4.89v31h-5.65Z"/><path class="cls-4" d="M325.05,156.41a16.09,16.09,0,0,0,3.23-.1,10.88,10.88,0,0,0,10.21-9.26l-.1,0a8.52,8.52,0,0,1-6.74,2.76c-5.36,0-9.35-3.91-9.35-9.63a11,11,0,0,1,11.16-11.07c7.17,0,11,5.67,11,13.21,0,6.63-2.18,11.36-5.36,14.41a17,17,0,0,1-10.55,4.25,22.9,22.9,0,0,1-3.51.09Zm3-16.61c.05,3.2,1.85,5.68,5.08,5.68a5.64,5.64,0,0,0,5-2.58,3.53,3.53,0,0,0,.33-1.67c.05-4.2-1.52-7.82-5.32-7.82C330.23,133.41,328.09,136,328.09,139.8Z"/><path class="cls-5" d="M69.36,39.24H94.08v7.5H78.54V56H93.06v7.44H78.54V79.68H69.36Z"/><path class="cls-5" d="M110.16,39.24V79.68H101V39.24Z"/><path class="cls-5" d="M151.86,77.82a45.26,45.26,0,0,1-13.5,2.28c-7.38,0-12.72-1.86-16.44-5.46s-5.76-8.76-5.7-14.7c.06-13.44,9.84-21.12,23.1-21.12a27.85,27.85,0,0,1,11.22,2l-1.92,7.32a22.41,22.41,0,0,0-9.42-1.74c-7.62,0-13.38,4.32-13.38,13.08,0,8.34,5.22,13.26,12.72,13.26a12.25,12.25,0,0,0,4.5-.6V63.66H136.8V56.52h15.06Z"/><path class="cls-5" d="M168.18,39.24V54.78h15.06V39.24h9.12V79.68h-9.12V62.76H168.18V79.68H159V39.24Z"/><path class="cls-5" d="M208.14,46.92H197.28V39.24h31.08v7.68h-11V79.68h-9.18Z"/></svg>