<svg id="Layer_1" data-name="Layer 1" xmlns="http://www.w3.org/2000/svg" viewBox="0 0 152 98"><defs><style>.cls-1{fill:#fff;}.cls-2{fill:#2222b2;}.cls-3{fill:#0b0b5e;}</style></defs><title>leftEndEntry</title><rect class="cls-1" x="9.5" y="9.5" width="698" height="80" rx="10.5"/><path class="cls-2" d="M697,11a9,9,0,0,1,9,9V79a9,9,0,0,1-9,9H20a9,9,0,0,1-9-9V20a9,9,0,0,1,9-9H697m0-3H20A12,12,0,0,0,8,20V79A12,12,0,0,0,20,91H697a12,12,0,0,0,12-12V20A12,12,0,0,0,697,8Z"/><rect class="cls-3" x="8" y="8" width="143.43" height="83" rx="12"/></svg>