<svg id="Layer_1" data-name="Layer 1" xmlns="http://www.w3.org/2000/svg" viewBox="0 0 1128 199"><defs><style>.cls-1{fill:none;stroke:#0b0b5e;stroke-miterlimit:10;stroke-width:2px;}</style></defs><title>loginScreenUpdate</title><path d="M46.28,47.44h-2.8V30.87H24.72V47.44H22V12.88h2.77V28.4H43.48V12.88h2.8Z"/><path d="M78.89,32a21,21,0,0,1-1.57,8.38A12.4,12.4,0,0,1,72.84,46a11.79,11.79,0,0,1-6.72,1.95,11.41,11.41,0,0,1-9.29-4.33q-3.54-4.34-3.54-11.69V28.33A20.76,20.76,0,0,1,54.88,20a12.65,12.65,0,0,1,4.5-5.6,12.48,12.48,0,0,1,13.38,0,12.45,12.45,0,0,1,4.48,5.43,20.57,20.57,0,0,1,1.65,8.14Zm-2.78-3.75q0-6.24-2.68-9.78a9.35,9.35,0,0,0-14.65,0q-2.72,3.54-2.71,9.9V32q0,6.15,2.7,9.75a8.74,8.74,0,0,0,7.35,3.59,8.63,8.63,0,0,0,7.35-3.55q2.64-3.54,2.64-9.88Z"/><path d="M104.46,38.94a5.73,5.73,0,0,0-1.92-4.55q-1.92-1.66-7-3.18a23.94,23.94,0,0,1-7.44-3.28,7.88,7.88,0,0,1-3.34-6.6,7.88,7.88,0,0,1,3.1-6.45,12.31,12.31,0,0,1,7.92-2.48,12.74,12.74,0,0,1,5.86,1.33,9.76,9.76,0,0,1,4,3.71,10.06,10.06,0,0,1,1.42,5.29h-2.8A7.4,7.4,0,0,0,102,17a8.65,8.65,0,0,0-6.18-2.16,9.37,9.37,0,0,0-6,1.77,5.64,5.64,0,0,0-2.24,4.63,5.32,5.32,0,0,0,2,4.3A18.19,18.19,0,0,0,96,28.51a28.85,28.85,0,0,1,6.69,2.63,9.66,9.66,0,0,1,3.43,3.27,8.44,8.44,0,0,1,1.15,4.48,7.94,7.94,0,0,1-3.1,6.55A12.71,12.71,0,0,1,96,47.91a15.31,15.31,0,0,1-6.37-1.31,9.46,9.46,0,0,1-5.9-9h2.77a7,7,0,0,0,2.6,5.77A10.59,10.59,0,0,0,96,45.44a9.81,9.81,0,0,0,6.15-1.78A5.66,5.66,0,0,0,104.46,38.94Z"/><path d="M116,33.36V47.44h-2.77V12.88h11.18a11.46,11.46,0,0,1,8.09,2.75,9.85,9.85,0,0,1,3,7.57q0,4.88-2.85,7.51t-8.27,2.65Zm0-2.47h8.41a8.6,8.6,0,0,0,6.16-2,7.4,7.4,0,0,0,2.12-5.63,7.8,7.8,0,0,0-2.11-5.72,8.2,8.2,0,0,0-6-2.17H116Z"/><path d="M145.05,47.44h-2.78V12.88h2.78Z"/><path d="M175.58,15.35H164.32V47.44h-2.77V15.35H150.32V12.88h25.26Z"/><path d="M196.82,37.73H181.91l-3.38,9.71h-2.91l12.43-34.56h2.64l12.42,34.56h-2.89Zm-14-2.47h13.17l-6.59-18.82Z"/><path d="M210.73,45h16.21v2.47h-19V12.88h2.79Z"/><path d="M267.94,47.44h-2.77L246.29,17.86V47.44H243.5V12.88h2.79l18.9,29.59V12.88h2.75Z"/><path d="M294.41,37.73h-14.9l-3.38,9.71h-2.91l12.42-34.56h2.64L300.7,47.44h-2.88Zm-14.05-2.47h13.17L287,16.44Z"/><path d="M309.2,12.88l12.11,30.5,12.16-30.5h3.7V47.44h-2.78v-15L334.62,17,322.4,47.44h-2.15L308.08,17.08l.22,15.21V47.44h-2.77V12.88Z"/><path d="M363.62,30.87H348.26V45h17.66v2.47H345.49V12.88H365.8v2.47H348.26V28.4h15.36Z"/><rect class="cls-1" x="18" y="58.83" width="1092.95" height="130.97" rx="12"/></svg>