<svg id="Layer_1" data-name="Layer 1" xmlns="http://www.w3.org/2000/svg" viewBox="0 0 407 128"><defs><style>.cls-1{fill:#15329b;}.cls-2{fill:#f9f9f9;}</style></defs><title>loginScreenUpdate</title><rect class="cls-1" x="3" y="2" width="402" height="124" rx="12"/><path class="cls-2" d="M70.07,43.7V73.24q0,6.93-4.3,10.8T54.11,87.93q-7.35,0-11.65-3.89T38.13,73.36V43.7h1.73V73.18a12.28,12.28,0,0,0,3.9,9.59q3.9,3.54,10.35,3.54t10.34-3.54q3.89-3.52,3.88-9.62V43.7Z"/><path class="cls-2" d="M103.88,68.9V87.33h-1.73V43.7h14.61q7.15,0,11.12,3.37t4,9.37q0,5.93-3.86,9.16t-11,3.3Zm0-1.62h12.88q6.31,0,9.83-2.84a9.64,9.64,0,0,0,3.52-7.94,10.15,10.15,0,0,0-3.52-8.23q-3.51-3-9.83-3H103.88Z"/><path class="cls-2" d="M161.36,87.33V43.7h12.93a20.21,20.21,0,0,1,9.83,2.4,17.51,17.51,0,0,1,6.9,6.73,19.51,19.51,0,0,1,2.57,9.69v5.66A19.71,19.71,0,0,1,191.13,78a17.57,17.57,0,0,1-6.85,6.83,20,20,0,0,1-9.83,2.49Zm1.73-42V85.71h11.2a18.19,18.19,0,0,0,8.94-2.23,16.11,16.11,0,0,0,6.31-6.24,17.81,17.81,0,0,0,2.31-8.88v-5.6a17.81,17.81,0,0,0-2.23-8.87,16.06,16.06,0,0,0-6.23-6.25,18.06,18.06,0,0,0-8.84-2.32Z"/><path class="cls-2" d="M248,74.29H225.15l-5.2,13h-1.89l17.5-43.63h2.11l17.5,43.63h-1.89ZM225.8,72.68h21.6l-10.78-27Z"/><path class="cls-2" d="M309.37,45.32h-17v42h-1.74v-42h-17V43.7h35.76Z"/><path class="cls-2" d="M362.45,65.69H339v20h26.71v1.62H337.28V43.7h28.44v1.62H339V64.08h23.44Z"/></svg>