<svg id="Layer_1" data-name="Layer 1" xmlns="http://www.w3.org/2000/svg" viewBox="0 0 407 128">
  <defs>
    <style>
      .cls-1 {
        fill: #15329b;
      }

      .cls-2 {
        fill: #f9f9f9;
      }
    </style>
  </defs>
  <title>loginScreenUpdate</title>
  <rect class="cls-1" x="3" y="2" width="402" height="124" rx="12"/>
  <g>
    <path class="cls-2" d="M109.15,44.7V74.48a14.26,14.26,0,0,1-2.09,7.67,13.35,13.35,0,0,1-5.79,5,20,20,0,0,1-8.59,1.76q-7.38,0-11.83-3.76T76.24,74.75v-30h3.92V74.21q0,5.52,3.37,8.56t9.15,3q5.77,0,9.13-3.06t3.36-8.51V44.7Z"/>
    <path class="cls-2" d="M129,70.56V88.33h-3.95V44.7H141q7.29,0,11.51,3.48a11.72,11.72,0,0,1,4.22,9.56q0,6.13-4.06,9.48t-11.76,3.34Zm0-3.12h12q5.75,0,8.77-2.55a8.8,8.8,0,0,0,3-7.11,9.23,9.23,0,0,0-3-7.22q-3-2.69-8.52-2.74H129Z"/>
    <path class="cls-2" d="M170.5,88.33V44.7h13.06a21.56,21.56,0,0,1,10.31,2.44,17.43,17.43,0,0,1,7.11,7,20.86,20.86,0,0,1,2.55,10.37v4A20.85,20.85,0,0,1,201,78.89a17.54,17.54,0,0,1-7.15,7,22.08,22.08,0,0,1-10.57,2.46Zm3.95-40.51V85.21h8.86q7.38,0,11.84-4.57t4.47-12.37V64.43q0-7.53-4.4-12.05a15.52,15.52,0,0,0-11.59-4.56Z"/>
    <path class="cls-2" d="M243,76.07H221.82L217,88.33h-4.14L230.55,44.7h3.75L252,88.33h-4.11ZM223,73h18.74L232.41,49.2Z"/>
    <path class="cls-2" d="M291.37,47.82h-16V88.33h-4V47.82h-16V44.7h36Z"/>
    <path class="cls-2" d="M329.65,67.41H307.79v17.8h25.14v3.12H303.84V44.7h28.93v3.12h-25V64.3h21.86Z"/>
  </g>
</svg>
