<svg id="Layer_1" data-name="Layer 1" xmlns="http://www.w3.org/2000/svg" viewBox="0 0 191 182"><defs><style>.cls-1,.cls-2{fill:none;stroke:#0b0b5e;stroke-miterlimit:10;}.cls-1{stroke-width:3px;}.cls-2{stroke-width:5px;}</style></defs><title>loginScreenUpdate</title><ellipse class="cls-1" cx="95.15" cy="90.87" rx="66.66" ry="66.33"/><path class="cls-1" d="M38.18,54.65S28.57,45.22,29.31,41c1.14-6.42,7.35-11.7,12.24-14.35a8.1,8.1,0,0,1,8.71.67L60.47,35"/><path class="cls-1" d="M80.74,26.17s-.61-13.42,2.81-16c5.22-3.94,13.39-3.61,18.78-2.24a8,8,0,0,1,5.93,6.37l2.24,12.54"/><path class="cls-1" d="M30,105.72s-13.46.94-16.14-2.4c-4.08-5.09-3.95-13.23-2.71-18.63a8,8,0,0,1,6.26-6L30,76.1"/><path class="cls-1" d="M59.11,147.38s-9.4,9.64-13.63,8.93C39,155.22,33.66,149.08,31,144.24a8,8,0,0,1,.6-8.67l7.64-10.22"/><path class="cls-1" d="M111.43,156s.49,13.43-3,16c-5.26,3.89-13.42,3.49-18.8,2.08a8,8,0,0,1-5.87-6.43L81.68,155"/><path class="cls-1" d="M152.48,126.14s10.15,8.87,9.64,13.1c-.76,6.47-6.66,12.11-11.38,15a8.11,8.11,0,0,1-8.73-.16L131.37,147"/><path class="cls-1" d="M160.86,76.57s13.49-.48,16,2.94c3.9,5.23,3.51,13.36,2.08,18.71a8,8,0,0,1-6.46,5.84l-12.62,2.12"/><path class="cls-1" d="M131.82,34.54s9-10,13.21-9.53c6.5.79,12.14,6.69,15.05,11.41a8,8,0,0,1-.21,8.68L152.7,55.65"/><path class="cls-2" d="M59.68,97s3.09,28.1,34.88,30S133,97.65,133,97.65l-16.37,5.58"/><path class="cls-2" d="M132.93,86.32s-3.09-28.1-34.88-30S59.61,85.62,59.61,85.62L76,80.05"/></svg>