<svg id="Layer_1" data-name="Layer 1" xmlns="http://www.w3.org/2000/svg" viewBox="0 0 1128 415"><defs><style>.cls-1{fill:none;stroke:#0b0b5e;stroke-miterlimit:10;stroke-width:2px;}</style></defs><title>loginScreenUpdate</title><path d="M37.66,25.75V43.22a9.19,9.19,0,0,1-1.08,4.5,7.28,7.28,0,0,1-3,3,9.44,9.44,0,0,1-4.46,1,8.56,8.56,0,0,1-6.16-2.21,8.29,8.29,0,0,1-2.39-6.11V25.75h2V43.07a6.84,6.84,0,0,0,1.76,5,6.36,6.36,0,0,0,4.76,1.79,6.36,6.36,0,0,0,4.75-1.79,6.88,6.88,0,0,0,1.74-5V25.75Z"/><path d="M57.15,45.05a4.2,4.2,0,0,0-1.42-3.36,14.37,14.37,0,0,0-5.19-2.36A17.84,17.84,0,0,1,45,36.9a6.09,6.09,0,0,1-.18-9.66,9.08,9.08,0,0,1,5.87-1.84,9.43,9.43,0,0,1,4.34,1,7.22,7.22,0,0,1,3,2.75,7.47,7.47,0,0,1,1,3.92H57a5.51,5.51,0,0,0-1.7-4.23,6.45,6.45,0,0,0-4.58-1.59,7,7,0,0,0-4.44,1.31A4.15,4.15,0,0,0,44.63,32a3.94,3.94,0,0,0,1.48,3.19,13.61,13.61,0,0,0,4.76,2.18,20.85,20.85,0,0,1,5,2,7.21,7.21,0,0,1,2.54,2.41A6.3,6.3,0,0,1,59.22,45a5.89,5.89,0,0,1-2.29,4.85,9.43,9.43,0,0,1-6.06,1.83,11.4,11.4,0,0,1-4.71-1A7.34,7.34,0,0,1,42.9,48a7.26,7.26,0,0,1-1.11-4h2.05a5.2,5.2,0,0,0,1.92,4.27,7.82,7.82,0,0,0,5.11,1.57,7.27,7.27,0,0,0,4.56-1.32A4.19,4.19,0,0,0,57.15,45.05Z"/><path d="M77.08,39.08H65.7V49.52H78.78v1.82H63.65V25.75H78.7v1.83h-13v9.67H77.08Z"/><path d="M92.19,40.67H85.13V51.34H83.06V25.75H91a8.66,8.66,0,0,1,6.07,2,7.09,7.09,0,0,1,2.19,5.54,7.13,7.13,0,0,1-1.37,4.34,7,7,0,0,1-3.67,2.6l6.08,10.9v.22H98.07Zm-7.06-1.82h6.29a5.68,5.68,0,0,0,4.16-1.55,5.39,5.39,0,0,0,1.57-4,5.37,5.37,0,0,0-1.64-4.2,6.54,6.54,0,0,0-4.59-1.5H85.13Z"/><path d="M122.92,51.34h-2l-14-21.9v21.9h-2.07V25.75h2.07l14,21.92V25.75h2Z"/><path d="M142.53,44.16h-11L129,51.34h-2.15L136,25.75H138l9.21,25.59h-2.14Zm-10.41-1.83h9.76L137,28.39Z"/><path d="M153.48,25.75l9,22.59,9-22.59h2.74V51.34h-2.05V40.2l.16-11.43-9.05,22.57h-1.58l-9-22.48.16,11.27V51.34h-2.05V25.75Z"/><path d="M193.78,39.08H182.41V49.52h13.07v1.82H180.35V25.75H195.4v1.83h-13v9.67h11.37Z"/><rect class="cls-1" x="18.05" y="62.74" width="1092.95" height="130.97" rx="12"/><path d="M23,245.82v10.42H20.91V230.65H29.2a8.44,8.44,0,0,1,6,2,8.32,8.32,0,0,1,.09,11.17,8.67,8.67,0,0,1-6.12,2ZM23,244H29.2a6.4,6.4,0,0,0,4.56-1.49,5.53,5.53,0,0,0,1.57-4.18,5.71,5.71,0,0,0-1.57-4.23,6,6,0,0,0-4.43-1.61H23Z"/><path d="M52.79,249.05h-11l-2.51,7.19H37.1l9.2-25.59h2l9.2,25.59H55.32Zm-10.4-1.82h9.75l-4.87-13.94Z"/><path d="M74.79,250a4.24,4.24,0,0,0-1.42-3.37,14.74,14.74,0,0,0-5.19-2.35,17.89,17.89,0,0,1-5.52-2.44,6.09,6.09,0,0,1-.17-9.66,9.13,9.13,0,0,1,5.87-1.83,9.39,9.39,0,0,1,4.33,1,7.23,7.23,0,0,1,3,2.74,7.52,7.52,0,0,1,1,3.92H74.64a5.54,5.54,0,0,0-1.7-4.22,6.46,6.46,0,0,0-4.58-1.59,6.9,6.9,0,0,0-4.44,1.31,4.13,4.13,0,0,0-1.66,3.42,4,4,0,0,0,1.49,3.19,13.36,13.36,0,0,0,4.76,2.17,21.42,21.42,0,0,1,5,2A7.3,7.3,0,0,1,76,246.59a6.3,6.3,0,0,1,.85,3.33,5.9,5.9,0,0,1-2.3,4.85,9.4,9.4,0,0,1-6,1.82,11.45,11.45,0,0,1-4.72-1,7.31,7.31,0,0,1-3.25-2.71,7.18,7.18,0,0,1-1.12-4h2.06a5.2,5.2,0,0,0,1.92,4.27,7.8,7.8,0,0,0,5.11,1.57,7.31,7.31,0,0,0,4.56-1.32A4.19,4.19,0,0,0,74.79,250Z"/><path d="M95.05,250a4.27,4.27,0,0,0-1.42-3.37,14.72,14.72,0,0,0-5.2-2.35,17.93,17.93,0,0,1-5.51-2.44,6.09,6.09,0,0,1-.17-9.66,9.11,9.11,0,0,1,5.87-1.83,9.39,9.39,0,0,1,4.33,1,7.29,7.29,0,0,1,3,2.74,7.52,7.52,0,0,1,1,3.92H94.9a5.51,5.51,0,0,0-1.71-4.22,6.42,6.42,0,0,0-4.57-1.59,7,7,0,0,0-4.45,1.31,4.15,4.15,0,0,0-1.65,3.42A4,4,0,0,0,84,240.05a13.36,13.36,0,0,0,4.76,2.17,21.61,21.61,0,0,1,5,2,7.3,7.3,0,0,1,2.54,2.41,6.39,6.39,0,0,1,.85,3.33,5.9,5.9,0,0,1-2.3,4.85,9.42,9.42,0,0,1-6,1.82,11.41,11.41,0,0,1-4.72-1,7.34,7.34,0,0,1-3.26-2.71,7.26,7.26,0,0,1-1.11-4h2.06a5.2,5.2,0,0,0,1.92,4.27,7.8,7.8,0,0,0,5.11,1.57,7.31,7.31,0,0,0,4.56-1.32A4.22,4.22,0,0,0,95.05,250Z"/><path d="M106,249.33l.75,4,.92-3.8L113,230.65h1.86l5.21,18.86.9,3.83.8-4,4.39-18.68h2.11L122,256.24h-2l-5.51-20-.62-2.53-.6,2.53-5.65,20h-2l-6.21-25.59h2.1Z"/><path d="M150.18,244.83A15.53,15.53,0,0,1,149,251a9.23,9.23,0,0,1-3.32,4.11,8.77,8.77,0,0,1-5,1.44,8.45,8.45,0,0,1-6.88-3.2q-2.62-3.21-2.62-8.66v-2.64a15.26,15.26,0,0,1,1.18-6.19,9.26,9.26,0,0,1,3.33-4.15,9.27,9.27,0,0,1,9.91,0,9.23,9.23,0,0,1,3.32,4,15.21,15.21,0,0,1,1.22,6Zm-2.06-2.77a11.69,11.69,0,0,0-2-7.24,6.92,6.92,0,0,0-10.84,0,11.86,11.86,0,0,0-2,7.34v2.67a11.7,11.7,0,0,0,2,7.22,6.94,6.94,0,0,0,10.89,0,12.12,12.12,0,0,0,2-7.33Z"/><path d="M164.44,245.57h-7.07v10.67H155.3V230.65h7.9a8.73,8.73,0,0,1,6.08,2,7.88,7.88,0,0,1,.82,9.89,7,7,0,0,1-3.67,2.6L172.5,256v.23h-2.18Zm-7.07-1.82h6.3a5.68,5.68,0,0,0,4.16-1.55,6.08,6.08,0,0,0-.07-8.23,6.58,6.58,0,0,0-4.59-1.49h-5.8Z"/><path d="M177.06,256.24V230.65h6.8a10.21,10.21,0,0,1,5.36,1.43,9.73,9.73,0,0,1,3.7,4.11,13.42,13.42,0,0,1,1.33,6.08v2.35a13.5,13.5,0,0,1-1.32,6.09,9.65,9.65,0,0,1-3.72,4.09,10.45,10.45,0,0,1-5.5,1.44Zm2.06-23.76v21.94h4.61a7.75,7.75,0,0,0,6.16-2.69,10.7,10.7,0,0,0,2.32-7.25v-2.26a10.44,10.44,0,0,0-2.29-7.07,7.6,7.6,0,0,0-6-2.67Z"/><rect class="cls-1" x="18.05" y="267.64" width="1092.95" height="130.97" rx="12"/></svg>