<svg id="Layer_1" data-name="Layer 1" xmlns="http://www.w3.org/2000/svg" viewBox="0 0 360 131">
  <defs>
    <style>
      .cls-1 {
        fill: #dd7917;
      }

      .cls-2 {
        fill: #f9f9f9;
      }
    </style>
  </defs>
  <title>loginScreenUpdate</title>
  <rect class="cls-1" x="3" y="4" width="352" height="124" rx="12"/>
  <g>
    <path class="cls-2" d="M90.14,82.21h23.08v3.12H86.16V41.7h4Z"/>
    <path class="cls-2" d="M158.18,65.88A23.74,23.74,0,0,1,156,76.46a16.3,16.3,0,0,1-6.37,7A18.37,18.37,0,0,1,140,85.92a17.16,17.16,0,0,1-13.23-5.46q-5-5.47-5-14.76V61.21A23.57,23.57,0,0,1,124,50.65a16.42,16.42,0,0,1,6.4-7.07,19.71,19.71,0,0,1,19.05,0,16.4,16.4,0,0,1,6.38,6.86,23.51,23.51,0,0,1,2.34,10.28Zm-4-4.73q0-7.89-3.82-12.35T140,44.34a13,13,0,0,0-10.39,4.48q-3.87,4.47-3.87,12.51v4.55q0,7.75,3.85,12.3A13,13,0,0,0,140,82.72q6.7,0,10.46-4.48t3.76-12.48Z"/>
    <path class="cls-2" d="M206.8,80.14a13.25,13.25,0,0,1-6.44,4.26,29.6,29.6,0,0,1-9.8,1.52,19.17,19.17,0,0,1-9.76-2.45,16.88,16.88,0,0,1-6.62-7,22.26,22.26,0,0,1-2.37-10.31V60.7q0-9.08,4.91-14.34t13.19-5.26q7.23,0,11.62,3.43A13.89,13.89,0,0,1,206.77,54h-4a11.15,11.15,0,0,0-4.19-7.29A14.18,14.18,0,0,0,190,44.22a13.08,13.08,0,0,0-10.37,4.35q-3.83,4.35-3.82,12.26V66a20.29,20.29,0,0,0,1.81,8.8,13.66,13.66,0,0,0,5.2,5.92,14.47,14.47,0,0,0,7.79,2.1,23.06,23.06,0,0,0,8.76-1.5A9.48,9.48,0,0,0,202.85,79V67.74H190.3V64.62h16.5Z"/>
    <path class="cls-2" d="M227.75,85.33H223.8V41.7h3.95Z"/>
    <path class="cls-2" d="M280.16,85.33h-4L249.34,48V85.33h-4V41.7h4l26.9,37.36V41.7h3.92Z"/>
  </g>
</svg>
