<svg id="Layer_1" data-name="Layer 1" xmlns="http://www.w3.org/2000/svg" viewBox="0 0 867 124">
  <defs>
    <style>
      .cls-1 {
        fill: #15329b;
      }

      .cls-2 {
        fill: #f9f9f9;
      }
    </style>
  </defs>
  <title>loginScreenUpdate</title>
  <rect class="cls-1" width="867" height="124" rx="12"/>
  <g>
    <path class="cls-2" d="M68.1,70.72q-.81,6.9-5.28,10.55T50.89,84.93a17.36,17.36,0,0,1-9.2-2.43,16.22,16.22,0,0,1-6.18-6.88A23.11,23.11,0,0,1,33.3,65.45V59.79a23.39,23.39,0,0,1,2.18-10.31,16,16,0,0,1,6.28-6.94,18.11,18.11,0,0,1,9.42-2.44q7.51,0,11.86,3.78A15.36,15.36,0,0,1,68.1,54.33h-4Q62.64,43.22,51.18,43.22a12.62,12.62,0,0,0-10.13,4.44q-3.77,4.44-3.77,12.26v5.34q0,7.55,3.68,12a12.15,12.15,0,0,0,9.93,4.5q6.2,0,9.34-2.77t3.89-8.32Z"/>
    <path class="cls-2" d="M117.26,84.33h-4V63.41H86.58V84.33h-4V40.7h4V60.3h26.7V40.7h4Z"/>
    <path class="cls-2" d="M159.88,72.07H138.66l-4.81,12.26h-4.14L147.39,40.7h3.76l17.69,43.63h-4.11Zm-20-3.11h18.75L149.26,45.2Z"/>
    <path class="cls-2" d="M215.43,84.33h-3.94L184.62,47V84.33h-4V40.7h4l26.9,37.36V40.7h3.91Z"/>
    <path class="cls-2" d="M266,79.14a13.22,13.22,0,0,1-6.43,4.26,29.66,29.66,0,0,1-9.81,1.53A19.2,19.2,0,0,1,240,82.47a16.79,16.79,0,0,1-6.61-7A22.14,22.14,0,0,1,231,65.21V59.7q0-9.08,4.91-14.34t13.2-5.26q7.22,0,11.62,3.43A13.92,13.92,0,0,1,266,53H262a11.11,11.11,0,0,0-4.19-7.29,14.16,14.16,0,0,0-8.68-2.48,13.1,13.1,0,0,0-10.37,4.35q-3.82,4.35-3.82,12.26V65a20.29,20.29,0,0,0,1.81,8.8,13.72,13.72,0,0,0,5.2,5.92,14.49,14.49,0,0,0,7.79,2.1,23.06,23.06,0,0,0,8.76-1.5A9.4,9.4,0,0,0,262,78V66.74H249.48V63.62H266Z"/>
    <path class="cls-2" d="M307.92,63.41H286.06v17.8H311.2v3.12H282.12V40.7H311v3.12h-25V60.3h21.86Z"/>
    <path class="cls-2" d="M350.59,40.7l17.24,38.5,17.3-38.5h5.27V84.33h-3.95v-19l.32-19.47-17.4,38.47h-3.05L349,46l.32,19.2V84.33h-3.95V40.7Z"/>
    <path class="cls-2" d="M420,64.49,434.27,40.7h4.56L421.94,67.91V84.33H418V67.91L401.14,40.7h4.69Z"/>
    <path class="cls-2" d="M475.43,66.56V84.33h-3.95V40.7H487.4q7.29,0,11.51,3.48a11.69,11.69,0,0,1,4.22,9.56q0,6.13-4.06,9.48t-11.76,3.34Zm0-3.12h12c3.83,0,6.76-.85,8.77-2.55a8.8,8.8,0,0,0,3-7.11,9.23,9.23,0,0,0-3-7.22q-3-2.69-8.52-2.74H475.43Z"/>
    <path class="cls-2" d="M537.69,72.07H516.47l-4.81,12.26h-4.14L525.21,40.7H529l17.69,43.63h-4.11Zm-20-3.11h18.75L527.07,45.2Z"/>
    <path class="cls-2" d="M584.9,73.6a6.87,6.87,0,0,0-2.73-5.74q-2.73-2.11-10-4t-10.6-4.15q-4.74-3.18-4.75-8.33a9.56,9.56,0,0,1,4.42-8.14q4.41-3.12,11.28-3.13a19.83,19.83,0,0,1,8.33,1.68,13.4,13.4,0,0,1,5.7,4.68,11.63,11.63,0,0,1,2,6.68h-4a8.89,8.89,0,0,0-3.27-7.2q-3.29-2.71-8.8-2.72c-3.57,0-6.42.74-8.54,2.24a6.83,6.83,0,0,0-3.18,5.83,6.47,6.47,0,0,0,2.86,5.43c1.91,1.4,5,2.64,9.15,3.71a44.83,44.83,0,0,1,9.53,3.33,13.21,13.21,0,0,1,4.88,4.12,9.8,9.8,0,0,1,1.64,5.66,9.66,9.66,0,0,1-4.41,8.27c-3,2.08-6.82,3.12-11.64,3.12a24.2,24.2,0,0,1-9.07-1.65,13.72,13.72,0,0,1-6.26-4.62,11.34,11.34,0,0,1-2.13-6.8h4A8.49,8.49,0,0,0,563,79.14q3.69,2.67,9.82,2.67a15.29,15.29,0,0,0,8.76-2.25A6.88,6.88,0,0,0,584.9,73.6Z"/>
    <path class="cls-2" d="M628.77,73.6A6.87,6.87,0,0,0,626,67.86q-2.73-2.11-10-4t-10.6-4.15q-4.74-3.18-4.75-8.33a9.56,9.56,0,0,1,4.42-8.14q4.41-3.12,11.28-3.13a19.83,19.83,0,0,1,8.33,1.68,13.4,13.4,0,0,1,5.7,4.68,11.63,11.63,0,0,1,2,6.68h-4a8.89,8.89,0,0,0-3.27-7.2q-3.29-2.71-8.8-2.72c-3.57,0-6.42.74-8.54,2.24a6.83,6.83,0,0,0-3.18,5.83,6.47,6.47,0,0,0,2.86,5.43c1.91,1.4,5,2.64,9.15,3.71a44.83,44.83,0,0,1,9.53,3.33,13.21,13.21,0,0,1,4.88,4.12,10.18,10.18,0,0,1-2.77,13.93c-3,2.08-6.82,3.12-11.64,3.12a24.2,24.2,0,0,1-9.07-1.65,13.72,13.72,0,0,1-6.26-4.62,11.34,11.34,0,0,1-2.13-6.8h4a8.49,8.49,0,0,0,3.69,7.28q3.69,2.67,9.82,2.67a15.29,15.29,0,0,0,8.76-2.25A6.88,6.88,0,0,0,628.77,73.6Z"/>
    <path class="cls-2" d="M654.82,72.55l1.45,6.77L658,72.85,668.18,40.7h3.56l10,32.15,1.73,6.53L685,72.55l8.44-31.85h4l-12,43.63h-3.78L671.16,50.2,670,45.89l-1.15,4.31L658,84.33h-3.79L642.24,40.7h4Z"/>
    <path class="cls-2" d="M744.6,64.88a23.88,23.88,0,0,1-2.23,10.58,16.32,16.32,0,0,1-6.38,7,18.36,18.36,0,0,1-9.56,2.46,17.17,17.17,0,0,1-13.23-5.47q-5-5.47-5-14.76V60.21a23.7,23.7,0,0,1,2.26-10.56,16.44,16.44,0,0,1,6.41-7.07,19.71,19.71,0,0,1,19,0,16.38,16.38,0,0,1,6.37,6.86,23.38,23.38,0,0,1,2.35,10.28Zm-4-4.73q0-7.89-3.82-12.35t-10.47-4.46A13,13,0,0,0,716,47.82q-3.87,4.47-3.87,12.51v4.55q0,7.75,3.85,12.3a13,13,0,0,0,10.47,4.54q6.71,0,10.46-4.48t3.76-12.48Z"/>
    <path class="cls-2" d="M776.94,66.14H763.36V84.33h-4V40.7h15.19q7.47,0,11.68,3.38a11.48,11.48,0,0,1,4.21,9.46,11.27,11.27,0,0,1-2.64,7.39,13.51,13.51,0,0,1-7.06,4.43l11.69,18.58v.39h-4.21ZM763.36,63h12.1a11.71,11.71,0,0,0,8-2.64,8.67,8.67,0,0,0,3-6.84,8.7,8.7,0,0,0-3.15-7.17q-3.15-2.55-8.83-2.55H763.36Z"/>
    <path class="cls-2" d="M806.14,84.33V40.7h13.07a21.55,21.55,0,0,1,10.3,2.44,17.43,17.43,0,0,1,7.11,7,20.86,20.86,0,0,1,2.55,10.37v4a20.85,20.85,0,0,1-2.53,10.37,17.46,17.46,0,0,1-7.14,7,22.15,22.15,0,0,1-10.58,2.46Zm4-40.51V81.21H819q7.38,0,11.85-4.57t4.46-12.37V60.43q0-7.53-4.4-12t-11.59-4.56Z"/>
  </g>
</svg>
