<svg id="Layer_1" data-name="Layer 1" xmlns="http://www.w3.org/2000/svg" xmlns:xlink="http://www.w3.org/1999/xlink" viewBox="0 0 191 182">
  <defs>
    <style>
      .cls-1, .cls-2 {
        fill: none;
        stroke: #0b0b5e;
        stroke-miterlimit: 10;
      }

      .cls-1 {
        stroke-width: 3px;
      }

      .cls-2 {
        stroke-width: 5px;
      }

      .cls-3 {
        opacity: 0.35;
        fill: url(#radial-gradient);
      }
    </style>
    <radialGradient id="radial-gradient" cx="65.85" cy="110.63" fx="79.97018132735556" r="147.23" gradientTransform="translate(-3.17 -51.02) scale(1.29)" gradientUnits="userSpaceOnUse">
      <stop offset="0.15"/>
      <stop offset="0.52" stop-color="#fff" stop-opacity="0"/>
    </radialGradient>
  </defs>
  <title>loginScreenUpdate</title>
  <ellipse class="cls-1" cx="95.83" cy="90.95" rx="66.66" ry="66.33"/>
  <path class="cls-1" d="M38.86,54.73S29.25,45.3,30,41.1c1.14-6.42,7.36-11.7,12.25-14.35a8.08,8.08,0,0,1,8.7.67L61.15,35.1"/>
  <path class="cls-1" d="M81.42,26.25s-.6-13.42,2.81-16C89.45,6.32,97.62,6.65,103,8a8,8,0,0,1,5.93,6.37l2.24,12.54"/>
  <path class="cls-1" d="M30.7,105.8s-13.47.94-16.14-2.4c-4.09-5.09-4-13.23-2.72-18.63a8,8,0,0,1,6.26-6l12.54-2.54"/>
  <path class="cls-1" d="M59.79,147.46s-9.4,9.64-13.63,8.93c-6.45-1.09-11.82-7.23-14.51-12.07a8,8,0,0,1,.6-8.67l7.64-10.22"/>
  <path class="cls-1" d="M112.12,156s.48,13.43-3,16c-5.26,3.89-13.42,3.49-18.8,2.08a8,8,0,0,1-5.87-6.43l-2.13-12.56"/>
  <path class="cls-1" d="M153.16,126.22s10.15,8.87,9.65,13.1c-.77,6.47-6.66,12.11-11.39,15a8.11,8.11,0,0,1-8.73-.16l-10.64-7.09"/>
  <path class="cls-1" d="M161.54,76.65s13.49-.48,16.05,2.94c3.91,5.23,3.51,13.36,2.08,18.71a8,8,0,0,1-6.46,5.84l-12.62,2.12"/>
  <path class="cls-1" d="M132.5,34.62s9-10,13.22-9.53c6.5.79,12.13,6.69,15,11.41a8,8,0,0,1-.21,8.68l-7.17,10.55"/>
  <path class="cls-2" d="M60.37,97s3.08,28.1,34.88,30,38.43-29.27,38.43-29.27l-16.37,5.58"/>
  <path class="cls-2" d="M133.61,86.4s-3.09-28.1-34.88-30S60.29,85.7,60.29,85.7l16.37-5.57"/>
  <circle class="cls-3" cx="97.5" cy="91.5" r="109.5"/>
</svg>
